<?xml version="1.0" encoding="UTF-8"?>
<svg width="20px" height="20px" viewBox="0 0 20 20" version="1.1" xmlns="http://www.w3.org/2000/svg" xmlns:xlink="http://www.w3.org/1999/xlink">
    <!-- Generator: Sketch 60 (88103) - https://sketch.com -->
    <title>bit38_decode_copy</title>
    <desc>Created with Sketch.</desc>
    <g id="bit38_decode_copy" stroke="none" stroke-width="1" fill="none" fill-rule="evenodd">
        <path d="M12.25,5.5 L12.25,1 L4.375,1 L1,4.375 L1,14.5 L7.75,14.5 L7.75,19 L19,19 L19,5.5 L12.25,5.5 Z M4.375,2.59075 L4.375,4.375 L2.59075,4.375 L4.375,2.59075 Z M2.125,13.375 L2.125,5.5 L5.5,5.5 L5.5,2.125 L11.125,2.125 L11.125,5.5 L7.75,8.875 L7.75,13.375 L2.125,13.375 Z M11.125,7.09075 L11.125,8.875 L9.34075,8.875 L11.125,7.09075 Z M17.875,17.875 L8.875,17.875 L8.875,10 L12.25,10 L12.25,6.625 L17.875,6.625 L17.875,17.875 Z" id="Shape" fill="#000000" fill-rule="nonzero"></path>
    </g>
</svg>