<?xml version="1.0" encoding="UTF-8"?>
<svg width="20px" height="20px" viewBox="0 0 20 20" version="1.1" xmlns="http://www.w3.org/2000/svg" xmlns:xlink="http://www.w3.org/1999/xlink">
    <!-- Generator: Sketch 60 (88103) - https://sketch.com -->
    <title>bit38_decode_address</title>
    <desc>Created with Sketch.</desc>
    <g id="bit38_decode_address" stroke="none" stroke-width="1" fill="none" fill-rule="evenodd">
        <path d="M6.625,13.375 L6.625,19 L1,19 L1,13.375 L6.625,13.375 Z M11.125,13.375 L11.125,16.75 L13.375,16.75 L13.375,17.875 L11.125,17.875 L11.125,19 L7.75,19 L7.75,17.875 L10,17.875 L10,14.5 L7.75,14.5 L7.75,13.375 L11.125,13.375 Z M17.875,15.625 L17.875,16.75 L15.625,16.75 L15.625,19 L14.5,19 L14.5,15.625 L17.875,15.625 Z M19,17.875 L19,19 L16.75,19 L16.75,17.875 L19,17.875 Z M5.5,14.5 L2.125,14.5 L2.125,17.875 L5.5,17.875 L5.5,14.5 Z M4.375,15.625 L4.375,16.75 L3.25,16.75 L3.25,15.625 L4.375,15.625 Z M8.875,15.625 L8.875,16.75 L7.75,16.75 L7.75,15.625 L8.875,15.625 Z M13.375,13.375 L13.375,15.625 L12.25,15.625 L12.25,13.375 L13.375,13.375 Z M19,13.375 L19,14.5 L17.875,14.5 L17.875,13.375 L19,13.375 Z M15.625,11.125 L15.625,14.5 L14.5,14.5 L14.5,12.25 L13.375,12.25 L13.375,11.125 L15.625,11.125 Z M2.125,7.75 L2.125,10 L3.25,10 L3.25,11.125 L2.125,11.125 L2.125,12.25 L1,12.25 L1,7.75 L2.125,7.75 Z M6.625,7.75 L6.625,10 L8.875,10 L8.875,11.125 L10,11.125 L10,12.25 L7.75,12.25 L7.75,11.125 L5.5,11.125 L5.5,12.25 L4.375,12.25 L4.375,10 L5.5,10 L5.5,7.75 L6.625,7.75 Z M12.25,10 L12.25,12.25 L11.125,12.25 L11.125,10 L12.25,10 Z M19,11.125 L19,12.25 L16.75,12.25 L16.75,11.125 L19,11.125 Z M15.625,7.75 L15.625,8.875 L16.75,8.875 L16.75,7.75 L19,7.75 L19,8.875 L17.875,8.875 L17.875,10 L13.375,10 L13.375,8.875 L14.5,8.875 L14.5,7.75 L15.625,7.75 Z M12.25,6.625 L12.25,8.875 L7.75,8.875 L7.75,7.75 L11.125,7.75 L11.125,6.625 L12.25,6.625 Z M4.375,7.75 L4.375,8.875 L3.25,8.875 L3.25,7.75 L4.375,7.75 Z M6.625,1 L6.625,6.625 L1,6.625 L1,1 L6.625,1 Z M19,1 L19,6.625 L13.375,6.625 L13.375,1 L19,1 Z M8.875,5.5 L8.875,6.625 L7.75,6.625 L7.75,5.5 L8.875,5.5 Z M5.5,2.125 L2.125,2.125 L2.125,5.5 L5.5,5.5 L5.5,2.125 Z M17.875,2.125 L14.5,2.125 L14.5,5.5 L17.875,5.5 L17.875,2.125 Z M8.875,2.125 L8.875,3.25 L12.25,3.25 L12.25,4.375 L11.125,4.375 L11.125,5.5 L10,5.5 L10,4.375 L7.75,4.375 L7.75,2.125 L8.875,2.125 Z M4.375,3.25 L4.375,4.375 L3.25,4.375 L3.25,3.25 L4.375,3.25 Z M16.75,3.25 L16.75,4.375 L15.625,4.375 L15.625,3.25 L16.75,3.25 Z M12.25,1 L12.25,2.125 L10,2.125 L10,1 L12.25,1 Z" id="Combined-Shape" fill="#000000" fill-rule="nonzero"></path>
    </g>
</svg>