<?xml version="1.0" encoding="UTF-8"?>
<svg width="20px" height="20px" viewBox="0 0 20 20" version="1.1" xmlns="http://www.w3.org/2000/svg" xmlns:xlink="http://www.w3.org/1999/xlink">
    <!-- Generator: Sketch 60 (88103) - https://sketch.com -->
    <title>bit38_decode_scan</title>
    <desc>Created with Sketch.</desc>
    <g id="bit38_decode_scan" stroke="none" stroke-width="1" fill="none" fill-rule="evenodd">
        <path d="M7.75,12.25 L7.75,16 L4,16 L4,12.25 L7.75,12.25 Z M10.75,12.25 L10.75,14.5 L12.25,14.5 L12.25,15.25 L10.75,15.25 L10.75,16 L8.5,16 L8.5,15.25 L10,15.25 L10,13 L8.5,13 L8.5,12.25 L10.75,12.25 Z M15.25,13.75 L15.25,14.5 L13.75,14.5 L13.75,16 L13,16 L13,13.75 L15.25,13.75 Z M16,15.25 L16,16 L14.5,16 L14.5,15.25 L16,15.25 Z M7,13 L4.75,13 L4.75,15.25 L7,15.25 L7,13 Z M6.25,13.75 L6.25,14.5 L5.5,14.5 L5.5,13.75 L6.25,13.75 Z M9.25,13.75 L9.25,14.5 L8.5,14.5 L8.5,13.75 L9.25,13.75 Z M12.25,12.25 L12.25,13.75 L11.5,13.75 L11.5,12.25 L12.25,12.25 Z M16,12.25 L16,13 L15.25,13 L15.25,12.25 L16,12.25 Z M13.75,10.75 L13.75,13 L13,13 L13,11.5 L12.25,11.5 L12.25,10.75 L13.75,10.75 Z M4.75,8.5 L4.75,10 L5.5,10 L5.5,10.75 L4.75,10.75 L4.75,11.5 L4,11.5 L4,8.5 L4.75,8.5 Z M7.75,8.5 L7.75,10 L9.25,10 L9.25,10.75 L10,10.75 L10,11.5 L8.5,11.5 L8.5,10.75 L7,10.75 L7,11.5 L6.25,11.5 L6.25,10 L7,10 L7,8.5 L7.75,8.5 Z M11.5,10 L11.5,11.5 L10.75,11.5 L10.75,10 L11.5,10 Z M16,10.75 L16,11.5 L14.5,11.5 L14.5,10.75 L16,10.75 Z M13.75,8.5 L13.75,9.25 L14.5,9.25 L14.5,8.5 L16,8.5 L16,9.25 L15.25,9.25 L15.25,10 L12.25,10 L12.25,9.25 L13,9.25 L13,8.5 L13.75,8.5 Z M11.5,7.75 L11.5,9.25 L8.5,9.25 L8.5,8.5 L10.75,8.5 L10.75,7.75 L11.5,7.75 Z M6.25,8.5 L6.25,9.25 L5.5,9.25 L5.5,8.5 L6.25,8.5 Z M7.75,4 L7.75,7.75 L4,7.75 L4,4 L7.75,4 Z M16,4 L16,7.75 L12.25,7.75 L12.25,4 L16,4 Z M9.25,7 L9.25,7.75 L8.5,7.75 L8.5,7 L9.25,7 Z M7,4.75 L4.75,4.75 L4.75,7 L7,7 L7,4.75 Z M15.25,4.75 L13,4.75 L13,7 L15.25,7 L15.25,4.75 Z M9.25,4.75 L9.25,5.5 L11.5,5.5 L11.5,6.25 L10.75,6.25 L10.75,7 L10,7 L10,6.25 L8.5,6.25 L8.5,4.75 L9.25,4.75 Z M6.25,5.5 L6.25,6.25 L5.5,6.25 L5.5,5.5 L6.25,5.5 Z M14.5,5.5 L14.5,6.25 L13.75,6.25 L13.75,5.5 L14.5,5.5 Z M11.5,4 L11.5,4.75 L10,4.75 L10,4 L11.5,4 Z" id="Combined-Shape" fill="#000000" fill-rule="nonzero"></path>
        <g id="scan-2" transform="translate(0.000000, 1.000000)" fill="#000000" fill-rule="nonzero">
            <path d="M17.1428571,18 L12.8571429,18 C12.4621429,18 12.1428571,17.6905385 12.1428571,17.3076923 C12.1428571,16.9248462 12.4621429,16.6153846 12.8571429,16.6153846 L17.1428571,16.6153846 C17.5371429,16.6153846 17.8571429,16.3052308 17.8571429,15.9230769 L17.8571429,12.4615385 C17.8571429,12.0786923 18.1764286,11.7692308 18.5714286,11.7692308 C18.9664286,11.7692308 19.2857143,12.0786923 19.2857143,12.4615385 L19.2857143,15.9230769 C19.2857143,17.0681538 18.3242857,18 17.1428571,18 Z M6.42857143,18 L2.85714286,18 C1.67571429,18 0.714285714,17.0681538 0.714285714,15.9230769 L0.714285714,12.4615385 C0.714285714,12.0786923 1.03428571,11.7692308 1.42857143,11.7692308 C1.82285714,11.7692308 2.14285714,12.0786923 2.14285714,12.4615385 L2.14285714,15.9230769 C2.14285714,16.3052308 2.46357143,16.6153846 2.85714286,16.6153846 L6.42857143,16.6153846 C6.82285714,16.6153846 7.14285714,16.9248462 7.14285714,17.3076923 C7.14285714,17.6905385 6.82285714,18 6.42857143,18 Z M1.42857143,6.23076923 C1.03428571,6.23076923 0.714285714,5.92061538 0.714285714,5.53846154 L0.714285714,2.07692308 C0.714285714,0.931846154 1.67571429,-5.18696197e-13 2.85714286,-5.18696197e-13 L6.42857143,-5.18696197e-13 C6.82285714,-5.18696197e-13 7.14285714,0.310153846 7.14285714,0.692307692 C7.14285714,1.07446154 6.82285714,1.38461538 6.42857143,1.38461538 L2.85714286,1.38461538 C2.46357143,1.38461538 2.14285714,1.69546154 2.14285714,2.07692308 L2.14285714,5.53846154 C2.14285714,5.92061538 1.82285714,6.23076923 1.42857143,6.23076923 Z M18.5714286,6.23076923 C18.1764286,6.23076923 17.8571429,5.92061538 17.8571429,5.53846154 L17.8571429,2.07692308 C17.8571429,1.69546154 17.5371429,1.38461538 17.1428571,1.38461538 L12.8571429,1.38461538 C12.4621429,1.38461538 12.1428571,1.07446154 12.1428571,0.692307692 C12.1428571,0.310153846 12.4621429,-5.18696197e-13 12.8571429,-5.18696197e-13 L17.1428571,-5.18696197e-13 C18.3242857,-5.18696197e-13 19.2857143,0.931846154 19.2857143,2.07692308 L19.2857143,5.53846154 C19.2857143,5.92061538 18.9664286,6.23076923 18.5714286,6.23076923 Z" id="Shape"></path>
        </g>
        <path d="M18.3571429,10.6076923 L1.64285714,10.6076923 C1.288,10.6076923 1,10.3164923 1,9.95769231 C1,9.59889231 1.288,9.30769231 1.64285714,9.30769231 L18.3571429,9.30769231 C18.7126429,9.30769231 19,9.59889231 19,9.95769231 C19,10.3164923 18.7126429,10.6076923 18.3571429,10.6076923 Z" id="Path" fill="#000000"></path>
    </g>
</svg>