<?xml version="1.0" encoding="UTF-8"?>
<svg width="96px" height="72px" viewBox="0 0 96 72" version="1.1" xmlns="http://www.w3.org/2000/svg" xmlns:xlink="http://www.w3.org/1999/xlink">
    <!-- Generator: Sketch 60 (88103) - https://sketch.com -->
    <title>bit38_decode_pay attention</title>
    <desc>Created with Sketch.</desc>
    <g id="bit38_decode_pay-attention" stroke="none" stroke-width="1" fill="none" fill-rule="evenodd">
        <path d="M49.120415,0.350300289 C49.331671,0.493189519 49.5136476,0.675166149 49.6565369,0.886422195 L95.6456414,68.8794849 C96.2644848,69.7944203 96.0244548,71.0377936 95.1095195,71.656637 C94.7786794,71.8804103 94.3884161,72 93.9890044,72 L2.01079535,72 C0.906225854,72 0.0107953533,71.1045695 0.0107953533,70 C0.0107953533,69.6005883 0.130385006,69.210325 0.354158394,68.8794849 L46.3432629,0.886422195 C46.9621063,-0.0285131336 48.2054796,-0.268543087 49.120415,0.350300289 Z M47.9716024,53.5189155 C46.3869438,53.5189155 45.0192325,53.9502367 43.8684686,54.812879 C42.7177046,55.6755213 42.1423226,57.1748758 42.1423226,59.3109424 C42.1423226,61.3237745 42.7177046,62.7820508 43.8684686,63.6857713 C45.0192325,64.5894918 46.3869438,65.0413521 47.9716024,65.0413521 C49.5185311,65.0413521 50.8579449,64.5894918 51.9898439,63.6857713 C53.1217429,62.7820508 53.6876924,61.3237745 53.6876924,59.3109424 C53.6876924,57.1748758 53.1217429,55.6755213 51.9898439,54.812879 C50.8579449,53.9502367 49.5185311,53.5189155 47.9716024,53.5189155 Z M53.9706671,20.3071867 L42.0291327,20.3071867 L43.4440064,48.7743828 L52.5557934,48.7743828 L53.9706671,20.3071867 Z" id="Combined-Shape" fill="#DCCA85"></path>
    </g>
</svg>