<svg xmlns="http://www.w3.org/2000/svg" width="18" height="18" viewBox="0 0 18 18">
  <path id="Path_2" data-name="Path 2" d="M7.5,0H.75A.75.75,0,0,0,0,.75V7.5a.75.75,0,0,0,.75.75H7.5a.75.75,0,0,0,.75-.75V.75A.75.75,0,0,0,7.5,0ZM6.75,6.75H1.5V1.5H6.75Zm.75,3H.75A.75.75,0,0,0,0,10.5v6.75A.75.75,0,0,0,.75,18H7.5a.75.75,0,0,0,.75-.75V10.5a.75.75,0,0,0-.75-.75ZM6.75,16.5H1.5V11.25H6.75ZM17.25,0H10.5a.75.75,0,0,0-.75.75V7.5a.75.75,0,0,0,.75.75h6.75A.75.75,0,0,0,18,7.5V.75A.75.75,0,0,0,17.25,0ZM16.5,6.75H11.25V1.5H16.5ZM3,3H5.25V5.25H3Zm0,9.75H5.25V15H3Zm12.75-3H18V12H15.75Zm0,6h-1.5V18H18V14.25H15.75Zm-6,0H12V18H9.75V15.75ZM12.75,3H15V5.25H12.75V3Zm-3,6.75H12V12H9.75V9.75ZM12,12h2.25v3.75H12Z"/>
</svg>
