<svg xmlns="http://www.w3.org/2000/svg" width="24" height="24" viewBox="0 0 24 24">
  <g id="组_1069" data-name="组 1069" transform="translate(-289 -2485)">
    <rect id="矩形_252" data-name="矩形 252" width="24" height="24" transform="translate(289 2485)" fill="none"/>
    <path id="路径_105" data-name="路径 105" d="M23.625.247a.926.926,0,0,0-1.406.177C22.183.476,18.444,5.647,12,5.647,5.592,5.647,1.816.475,1.781.424A.926.926,0,0,0,.375.247,1.231,1.231,0,0,0,.22,1.835,13.828,13.828,0,0,0,1.881,3.68L.127,6.094,1.673,7.527l1.817-2.5A15.534,15.534,0,0,0,6.12,6.588L5.114,9.734l1.88.768L8.015,7.311A13.643,13.643,0,0,0,11,7.857v3.437h2V7.857a13.644,13.644,0,0,0,3.038-.563l1.031,3.187L18.947,9.7,17.931,6.567a15.494,15.494,0,0,0,2.506-1.491l1.806,2.519L23.8,6.172,22.054,3.741a13.973,13.973,0,0,0,1.727-1.9A1.229,1.229,0,0,0,23.625.249Z" transform="translate(289 2491)" fill="#b59256"/>
  </g>
</svg>
