<svg id="图层_1" data-name="图层 1" xmlns="http://www.w3.org/2000/svg" viewBox="0 0 397 178"><title>190726_ballet_logo_OK_outline</title><path d="M134,19q-3.37,6.77-6.47,12.94l-1.69,3.36c-1.78-.3-3.7-.52-5.76-.67-4.49-.33-8.75-.52-14.07-.58,2.8-5,5.89-10.4,8.32-15h-11c-1.43,2.87-4.73,9.38-7.62,15.06l-1.68,0c-30.1-.62-48.39,3.22-66.14,15.16C15.7,57.45,7.29,72.88,7.57,83.28c.27,10,9.22,24.2,32.68,17.5,14.33-4.09,23-16.82,21-24.64-1.06-4.2-7.53-7.28-12.12-7a1,1,0,0,0-.76.44,1.62,1.62,0,0,0-.3.9c.71.1,6-.63,6.89,6.58.77,6.28-9.69,25.62-27.45,22.2C3.85,94.69,18.76,60.81,35.3,50,56.34,36.14,79.47,36.71,92.72,37a5.86,5.86,0,0,0,1.12,0c-1.63,2.65-10.48,18.83-12.47,22.67s-4,7.56-6,11.15-3.7,6.84-5.14,9.72q-2.86,5-6.33,11.39t-7.17,13.19Q53.06,112,49,119t-7.89,13.55c-.48.8-1.07,1.72-1.79,2.76l-.3.42v0q-.93,1.24-2.83,3.34l-.53.57c-1,.45-2.08.87-3.19,1.26a27.48,27.48,0,0,1-3,.83,15.38,15.38,0,0,1-3.56.39,11.67,11.67,0,0,1-3.34-.48,4,4,0,0,1-2.29-1.64,5.75,5.75,0,0,0,3.17-2.49,4,4,0,0,0,.4-3.53,5,5,0,0,0-2.49-2.94,5.5,5.5,0,0,0-4.37,0,7,7,0,0,0-3.84,3,5.31,5.31,0,0,0-.34,4.66q1.39,4,7,5.18a24.89,24.89,0,0,0,13.62-1.18A49.68,49.68,0,0,0,39.91,140c-2.81,5.31-5.95,11.28-8.73,16.59h11c3.39-6.82,7.37-14.68,10.5-20.84h0l.92-1.81H53.5l4.41-9.33c.12-.28.26-.57.41-.87l.63-1.25.33-.45h-.11L61,118.35l0-.08q7.71-15.2,15.41-30.06,9.08-17.51,17-31.66l5.13-8.75a73.35,73.35,0,0,1,5.38-8A7.37,7.37,0,0,1,107.9,37a19.36,19.36,0,0,1,4.9-.6,35.55,35.55,0,0,1,6.43.6,23.16,23.16,0,0,1,2.7.6,21,21,0,0,1,3.34,1.26l.82.42a13.5,13.5,0,0,1,5,4.68A13.8,13.8,0,0,1,133,51.51a28.63,28.63,0,0,1-2,10.79,34.85,34.85,0,0,1-5.37,9.11,39.52,39.52,0,0,1-7.53,7.08c-2.79,2-4.33,3.64-7.2,4.92a21.09,21.09,0,0,1-4.66,1.08,38.63,38.63,0,0,1-4.9.36,17.33,17.33,0,0,1-5-.72,17.33,17.33,0,0,0-5-.72,2.39,2.39,0,0,0-1.91.84,3.05,3.05,0,0,0-.72,2,2.86,2.86,0,0,0,.36,1.8l.2.17.22.14.29.14a2.88,2.88,0,0,0,.37.14,36,36,0,0,0,7.17-.84A38,38,0,0,1,104,87l2-.48-1.61.52a81.56,81.56,0,0,1,10-.45,17.61,17.61,0,0,1,8.21,2.61A17.4,17.4,0,0,1,129,95.12a16.58,16.58,0,0,1,2.35,9.13,42.92,42.92,0,0,1-2.46,14.33,35.89,35.89,0,0,1-19.7,21.24A41.63,41.63,0,0,1,92,143.15,18.28,18.28,0,0,1,81,140.08q-4.28-3.07-4.28-7.68a14.75,14.75,0,0,1,1.53-7.08A6.55,6.55,0,0,1,83.52,122a9.44,9.44,0,0,0-6-2A12.69,12.69,0,0,0,68.54,123a9.62,9.62,0,0,0-3.34,7.34q0,5.36,5.05,9.14-4.24,8-9,17.06h11q3.25-6.53,6.24-12.48a3.81,3.81,0,0,0,.22-.54,48.92,48.92,0,0,0,13.47,1.67,56.61,56.61,0,0,0,18-3.07,62.31,62.31,0,0,0,16.7-8.45,50.23,50.23,0,0,0,12.42-12.63,27.29,27.29,0,0,0,4.92-15.61,18.41,18.41,0,0,0-8.41-16.12,31.19,31.19,0,0,0-9.26-4.1,47.64,47.64,0,0,0-9.41-1.51A47.64,47.64,0,0,0,126.81,79a45.86,45.86,0,0,0,10.39-8.39,28.49,28.49,0,0,0,5.62-9,23.62,23.62,0,0,0,1.67-7.92q0-6.48-2.75-10.31A17.08,17.08,0,0,0,135,37.95q4.68-8.84,10-19Zm252,83.13q-3.51,5.66-8.73,12.74a142.2,142.2,0,0,1-11.17,13.36,77.21,77.21,0,0,1-12.25,10.61q-6.29,4.33-12,4.32A10.09,10.09,0,0,1,337,142a5.09,5.09,0,0,1-2.56-4.17,14.69,14.69,0,0,1,.91-6.53,78.23,78.23,0,0,1,4-9.12q2.69-5.42,6.7-12.89t9-17.69h21l.7-1.89H356l10.06-18.24h-9.39l-9.91,18.24H338l-.7,1.89h8.47q-3.52,6.92-6.9,13t-6,11.32a69.36,69.36,0,0,0-4.13,9.67c-.07.22-.13.43-.2.64-1.34,1.33-2.71,2.62-4.11,3.84a66.61,66.61,0,0,1-13.1,9q-6.58,3.38-11.76,3.38a7.4,7.4,0,0,1-3.81-.94,8.34,8.34,0,0,1-2.66-2.44,12.92,12.92,0,0,1-1.66-3.3,18.38,18.38,0,0,1-.85-3.7,28.21,28.21,0,0,1,.13-7.86,29.64,29.64,0,0,1,2-7.08,97.78,97.78,0,0,0,11.51-3.38,89.42,89.42,0,0,0,12-5.19,39.32,39.32,0,0,0,9.16-6.45q3.63-3.54,3.16-7.31a6.51,6.51,0,0,0-2.79-4.8,11,11,0,0,0-6.32-1.65,27.67,27.67,0,0,0-14.21,4.25,53.51,53.51,0,0,0-21.66,24.76,32.34,32.34,0,0,0-2.26,7.86q-2.59,3.13-5.17,5.82a62,62,0,0,1-10.24,8.8q-4.88,3.23-8.81,3.22-3.46,0-3.93-3.93a12.47,12.47,0,0,1,.47-4.56,46.1,46.1,0,0,1,2.82-7.23q2.12-4.56,6-11.71t9.87-18.16q6-11,14.46-26.49t19.7-36.71H295.41q-9.67,19.18-17.16,33.41T265.19,92.29q-5.57,10.3-9.34,17.37t-6,12a51.18,51.18,0,0,0-2.45,6.42q-1.39,1.57-2.78,3a62.13,62.13,0,0,1-10.26,8.8q-4.88,3.23-8.81,3.22-3.46,0-3.93-3.93a12.47,12.47,0,0,1,.48-4.56,46.17,46.17,0,0,1,2.83-7.23q2.13-4.56,6-11.71t9.9-18.16q6-11,14.51-26.49T275.1,34.35H264.16q-9.7,19.18-17.21,33.41T233.84,92.29q-5.59,10.3-9.37,17.37t-6,12a46.46,46.46,0,0,0-2.77,7.58c-.54.61-1.08,1.2-1.62,1.78a62,62,0,0,1-10,8.88q-4.73,3.23-8,3.22-4.24,0-4.72-4.09-.33-2.83,1.6-7.78a119.47,119.47,0,0,1,5.33-11.48q3.39-6.52,7.82-14.23t9.25-15.88H205.08L201,99h-.31A23.3,23.3,0,0,0,198.9,95a12.8,12.8,0,0,0-7-5.74,16.78,16.78,0,0,0-5.59-.86q-6.58,0-13.42,4.56a54.61,54.61,0,0,0-12.32,11.4A59,59,0,0,0,151.88,119q-3.19,7.78-2.45,14.23a16.23,16.23,0,0,0,3.3,8.18q2.77,3.61,8.59,3.62a16.07,16.07,0,0,0,7-1.73,38.28,38.28,0,0,0,6.82-4.25,50.54,50.54,0,0,0,6-5.42q2.72-2.91,4.51-5.11l.33.16q-.53,2.2-1,4.32a13.12,13.12,0,0,0-.2,4.32,8.7,8.7,0,0,0,2.76,5.42q2.39,2.28,6.95,2.28,5.5,0,11.28-4.32a68.26,68.26,0,0,0,9.35-8.58,20.06,20.06,0,0,0,0,4.88,9.07,9.07,0,0,0,2.81,5.82q2.38,2.2,7.26,2.2a18.35,18.35,0,0,0,9.75-3.3,66.72,66.72,0,0,0,11.74-10.25,20.32,20.32,0,0,0-.13,5.53,9.09,9.09,0,0,0,2.82,5.82q2.39,2.2,7.26,2.2a18.32,18.32,0,0,0,9.74-3.3,67.39,67.39,0,0,0,12-10.53q1.3-1.39,2.61-2.9a24.06,24.06,0,0,0,.16,3.69q.77,6.29,4.8,9.67T296.52,145a30.76,30.76,0,0,0,10.68-2,50,50,0,0,0,10.42-5.35,72.15,72.15,0,0,0,9.65-7.7l.46-.45a15.54,15.54,0,0,0-.08,4.14,11.85,11.85,0,0,0,4.58,8.33,14.12,14.12,0,0,0,8.79,3,22.86,22.86,0,0,0,12.45-4.09,69.4,69.4,0,0,0,12.29-10.3A128.23,128.23,0,0,0,377.13,117q5.4-7.46,9.87-14.23Zm-89.12,5.5a54,54,0,0,1,5.8-8.25,41,41,0,0,1,6.81-6.45,11.56,11.56,0,0,1,6.81-2.59,4.6,4.6,0,0,1,3,1.1,4.91,4.91,0,0,1,1.59,3.3,9.59,9.59,0,0,1-2.5,7.63,29.86,29.86,0,0,1-7.46,6.21,54.46,54.46,0,0,1-9.41,4.48,53.91,53.91,0,0,1-8.33,2.44A44.26,44.26,0,0,1,296.86,107.62ZM185.32,126.41a63.54,63.54,0,0,1-6.89,7.63,39.13,39.13,0,0,1-6.93,5.27,12.38,12.38,0,0,1-6.06,2,5.57,5.57,0,0,1-4.39-2,10,10,0,0,1-2.14-5.58,33.42,33.42,0,0,1,1.83-14.78,56.54,56.54,0,0,1,7.08-14.07,46.64,46.64,0,0,1,9.76-10.46q5.32-4.09,10-4.09a7.93,7.93,0,0,1,5.24,1.89,8.07,8.07,0,0,1,2.69,5.5,26.12,26.12,0,0,1-.75,9.59,50.83,50.83,0,0,1-3.7,9.91A54.59,54.59,0,0,1,185.32,126.41Z"/></svg>