<svg xmlns="http://www.w3.org/2000/svg" width="94" height="32" viewBox="0 0 94 32" fill="none">
    <g clip-path="url(#clip0_36547_63)">
      <g clip-path="url(#clip1_36547_63)">
        <path d="M93.374 26.5627C93.374 26.985 93.3016 27.367 93.1528 27.7129C93.004 28.0587 92.8029 28.3563 92.5496 28.6016C92.2962 28.847 92.0026 29.04 91.6688 29.1727C91.335 29.3094 90.9852 29.3738 90.6192 29.3738C90.213 29.3738 89.839 29.3014 89.5012 29.1606C89.1634 29.0159 88.8698 28.8228 88.6285 28.5695C88.3832 28.3201 88.1942 28.0225 88.0574 27.6767C87.9207 27.3308 87.8523 26.9608 87.8523 26.5587C87.8523 26.1364 87.9247 25.7543 88.0735 25.4085C88.2223 25.0626 88.4234 24.765 88.6768 24.5197C88.9301 24.2744 89.2237 24.0813 89.5615 23.9486C89.8993 23.8119 90.2532 23.7435 90.6232 23.7435C90.9932 23.7435 91.3391 23.8119 91.6729 23.9486C92.0067 24.0854 92.3002 24.2744 92.5536 24.5197C92.807 24.765 93.008 25.0626 93.1568 25.4085C93.3056 25.7543 93.378 26.1404 93.378 26.5587L93.374 26.5627ZM92.7708 26.5627C92.7708 26.2208 92.7145 25.9072 92.6059 25.6216C92.4973 25.3361 92.3445 25.0908 92.1474 24.8857C91.9504 24.6806 91.7211 24.5197 91.4637 24.4071C91.2023 24.2945 90.9208 24.2382 90.6192 24.2382C90.3176 24.2382 90.028 24.2945 89.7666 24.4071C89.5052 24.5197 89.272 24.6806 89.0789 24.8857C88.8819 25.0908 88.729 25.3361 88.6205 25.6216C88.5119 25.9072 88.4556 26.2208 88.4556 26.5627C88.4556 26.8844 88.5038 27.186 88.6044 27.4675C88.7049 27.7491 88.8497 27.9944 89.0387 28.2035C89.2277 28.4126 89.4529 28.5815 89.7184 28.7022C89.9838 28.8269 90.2854 28.8872 90.6232 28.8872C90.9248 28.8872 91.2064 28.8309 91.4678 28.7183C91.7292 28.6057 91.9584 28.4448 92.1514 28.2397C92.3445 28.0346 92.5013 27.7893 92.6099 27.5078C92.7185 27.2263 92.7748 26.9085 92.7748 26.5627H92.7708ZM90.0602 28.1754H89.5494V25.0586H90.7318C91.1098 25.0586 91.3913 25.131 91.5844 25.2677C91.7734 25.4085 91.8699 25.6377 91.8699 25.9514C91.8699 26.2329 91.7935 26.438 91.6367 26.5667C91.4798 26.6954 91.2868 26.7758 91.0576 26.8L91.9302 28.1713H91.3511L90.5468 26.8402H90.0642V28.1713L90.0602 28.1754ZM90.6353 26.4058C90.7318 26.4058 90.8243 26.4018 90.9088 26.3938C90.9932 26.3857 91.0736 26.3656 91.138 26.3294C91.2023 26.2932 91.2546 26.245 91.2948 26.1847C91.335 26.1243 91.3552 26.0318 91.3552 25.9192C91.3552 25.8227 91.335 25.7503 91.2908 25.694C91.2466 25.6377 91.1943 25.5975 91.1299 25.5653C91.0656 25.5372 90.9932 25.5171 90.9128 25.509C90.8323 25.501 90.7559 25.497 90.6795 25.497H90.0602V26.4099H90.6313L90.6353 26.4058Z" fill="black" />
        <path d="M27.3431 3.77226C26.945 3.71193 26.5268 3.65965 26.0844 3.6315C25.0388 3.55509 24.1098 3.51889 23.032 3.49879L24.9422 0.0241096H22.1432L22.115 0.0924771C21.7933 0.735936 21.0654 2.16361 20.3938 3.50281C20.2892 3.50281 20.1847 3.50281 20.0801 3.51085C12.9337 3.36205 8.78338 4.3192 4.7497 7.02574C2.05924 8.83949 -0.0722159 12.4067 0.000173231 14.9885C0.0283245 16.0864 0.53907 17.6066 1.87827 18.5879C2.86356 19.3158 4.67731 19.9955 7.69353 19.1348C11.0596 18.1777 13.1106 15.2138 12.6321 13.3035C12.3787 12.278 10.8264 11.53 9.71238 11.5983C9.60782 11.6064 9.5113 11.6586 9.44293 11.7471C9.38663 11.8276 9.28206 12.0407 9.39467 12.1211C9.43891 12.1533 9.52336 12.1453 9.57966 12.1453C9.60782 12.1453 9.63195 12.1453 9.6601 12.1453C9.72444 12.1453 9.78879 12.1533 9.85313 12.1654C10.014 12.1895 10.1708 12.2418 10.3116 12.3303C10.4926 12.4429 10.6333 12.6118 10.7298 12.8008C10.8505 13.034 10.9148 13.2914 10.943 13.5528C11.0274 14.2486 10.4041 15.9618 9.04077 17.2286C8.1721 18.0369 6.72029 18.9257 4.74568 18.5437C3.23355 18.2501 2.33673 17.4377 2.07533 16.1025C1.5123 13.2753 4.08211 9.01645 6.57954 7.37965C11.3813 4.22268 16.6054 4.34333 19.7262 4.41571H19.7463C19.7463 4.41571 19.7825 4.42376 19.8066 4.42376C19.3522 5.21602 17.9446 7.83007 16.8789 9.7886C16.2797 10.8945 15.8091 11.7632 15.6603 12.0407C15.3668 12.5716 14.5986 13.9872 13.923 15.2379C13.549 15.9336 13.2031 16.561 13.0101 16.9149C12.5315 17.7916 8.40937 25.304 7.80211 26.2893C7.09028 27.4556 6.41867 27.9824 5.13176 28.3604C4.87035 28.4368 4.6009 28.4449 4.34754 28.4449C4.07809 28.4449 3.82875 28.4087 3.60756 28.3403C3.45072 28.2961 3.33007 28.2197 3.23355 28.1231C3.51104 27.9985 3.72821 27.8095 3.87701 27.5641C4.05798 27.2625 4.08614 26.9569 3.98157 26.6512C3.86093 26.3094 3.64376 26.052 3.34616 25.9032C3.04856 25.7544 2.67455 25.7544 2.24826 25.9032C1.82197 26.052 1.50024 26.3094 1.29916 26.6512C1.09003 27.0011 1.05786 27.3993 1.20666 27.8255C1.43187 28.477 2.00696 28.9033 2.90378 29.0964C3.89712 29.3135 4.97491 29.217 6.11303 28.8189C6.51117 28.6781 6.90529 28.5132 7.29539 28.3242C6.69616 29.4623 5.36501 31.996 5.36501 31.996H8.16405C8.16405 31.996 9.47912 29.3256 12.3908 23.442L12.5637 23.1001C13.7823 20.6912 18.8575 10.971 20.0318 8.8596C20.3174 8.38103 20.615 7.87431 20.9287 7.33541L21.2222 6.84075C21.6405 6.12892 22.0547 5.50959 22.4569 4.99885C22.6942 4.69321 22.9797 4.4881 23.3014 4.39963C23.6433 4.30713 24.0132 4.26691 24.3993 4.26691C24.9825 4.26691 25.276 4.31115 25.8672 4.39963C26.0683 4.42778 26.2573 4.47604 26.4745 4.53234C26.7359 4.60875 26.9933 4.70527 27.2305 4.81788C27.2909 4.84603 27.3552 4.8782 27.4196 4.90635C27.874 5.15167 28.252 5.50557 28.5335 5.94795C28.8191 6.39033 28.9598 6.94933 28.9598 7.62496C28.9598 8.49363 28.803 9.31002 28.5054 10.0701C28.1998 10.8342 27.7855 11.53 27.2868 12.1412C26.7761 12.7565 26.201 13.2995 25.5736 13.7499C25.3766 13.8906 25.2077 14.0274 25.0428 14.1561C24.6849 14.4336 24.3752 14.6789 23.9368 14.8759C23.6593 14.9805 23.3014 15.065 22.8912 15.1132C22.473 15.1655 22.099 15.1977 21.7772 15.1977C21.3871 15.1977 21.0051 15.1454 20.6552 15.0328C20.2812 14.9202 19.879 14.8599 19.4648 14.8599C19.2476 14.8599 19.0667 14.9443 18.9339 15.0971C18.8053 15.2459 18.7369 15.4349 18.7369 15.6441C18.7369 15.9055 18.7731 16.0623 18.8575 16.1468C18.9219 16.2111 19.0023 16.2634 19.0908 16.2956C19.2155 16.3438 19.3562 16.3237 19.4849 16.3197C19.6297 16.3117 19.7745 16.2996 19.9192 16.2835C20.2369 16.2473 20.5547 16.195 20.8724 16.1307C21.4113 16.0181 22.4971 15.9497 22.4971 15.9497C22.5494 15.9417 23.776 15.809 24.7854 15.8451C25.457 15.8653 25.9879 16.0824 26.6273 16.4363C27.2346 16.7661 27.7212 17.2125 28.063 17.7514C28.4129 18.2983 28.5858 18.978 28.5858 19.7944C28.5858 20.9003 28.3968 22.0022 28.0268 23.0639C27.6528 24.1176 27.0898 25.0788 26.3418 25.8992C25.6018 26.7236 24.6567 27.3952 23.5427 27.8979C22.4287 28.4006 21.1056 28.654 19.6136 28.654C18.6283 28.654 17.7958 28.4207 17.1685 27.9663C16.5411 27.5159 16.2314 26.9649 16.2314 26.2893C16.2314 25.6539 16.344 25.1311 16.5692 24.7088C16.7864 24.3026 17.1524 24.0814 17.6913 24.005L17.9688 23.9688L17.7516 23.7959C17.3333 23.4661 16.8387 23.2932 16.2837 23.2932C15.3949 23.2932 14.6751 23.5385 14.1362 24.0332C13.5973 24.5278 13.3278 25.127 13.3278 25.8147C13.3278 26.6432 13.7099 27.3631 14.4579 27.9542C13.8225 29.1567 12.3385 31.9718 12.3385 31.9718H15.1375C15.1375 31.9718 16.6135 28.9999 16.6215 28.9878C17.4982 29.2251 18.5157 29.3457 19.6578 29.3457C21.0131 29.3457 22.4247 29.1084 23.8484 28.6258C25.268 28.1553 26.571 27.4877 27.7332 26.6593C28.8915 25.8268 29.8647 24.8415 30.6288 23.7195C31.401 22.5894 31.787 21.3548 31.787 20.0518C31.787 19.1992 31.6061 18.4431 31.2562 17.8077C30.9063 17.1803 30.4116 16.6455 29.7963 16.2272C29.181 15.817 28.4491 15.4953 27.6247 15.2701C27.1099 15.1293 26.5469 15.0247 25.9557 14.9644C26.6434 14.6789 27.2064 14.3572 27.7212 14.0435C28.7226 13.4282 29.5389 12.7726 30.1462 12.0849C30.7615 11.3972 31.1999 10.6854 31.4613 9.97359C31.7227 9.26176 31.8594 8.63439 31.8594 8.10354C31.8594 7.08607 31.6342 6.26164 31.1999 5.65839C30.842 5.15569 30.3393 4.74549 29.7038 4.42376C30.4076 3.0926 32.0364 -0.012085 32.0364 -0.012085H29.2092L27.3431 3.76019V3.77226ZM87.3899 19.1549L87.3296 19.2595C86.7907 20.1282 86.1191 21.1094 85.3228 22.1913C84.5305 23.2691 83.6619 24.3026 82.757 25.2678C81.8521 26.2249 80.9071 27.0413 79.9499 27.7009C79.0089 28.3524 78.1 28.6821 77.2554 28.6821C76.8653 28.6821 76.5074 28.5937 76.1937 28.4288C75.8881 28.2639 75.7152 27.9824 75.6629 27.5601C75.6106 27.1419 75.679 26.6553 75.864 26.1083C76.061 25.5453 76.3667 24.8415 76.7688 24.0211C77.175 23.2047 77.6978 22.2033 78.3091 21.0491C78.9083 19.9271 79.596 18.5718 80.3521 17.0315H85.2102L85.4555 16.3599H80.71L83.0305 12.1533H80.5934L78.3051 16.3599H76.2782L76.0248 17.0315H77.9552C77.4525 18.0168 76.9458 18.9699 76.4511 19.8668C75.9323 20.8038 75.4658 21.6765 75.0596 22.4848C74.6454 23.2851 74.3277 24.0412 74.1025 24.7289C74.0864 24.7651 74.0824 24.8053 74.0663 24.8415V24.8495C73.7245 25.1874 73.4309 25.4649 73.1453 25.7102C72.152 26.5708 71.1466 27.2665 70.1452 27.7813C69.1599 28.2921 68.2591 28.5454 67.4869 28.5454C67.1732 28.5454 66.8958 28.477 66.6705 28.3443C66.4373 28.2116 66.2442 28.0306 66.0955 27.8135C65.9386 27.5963 65.818 27.351 65.7295 27.0815C65.641 26.8121 65.5726 26.5346 65.5405 26.2491C65.4641 25.6579 65.4801 25.0587 65.5686 24.4675C65.6571 23.9004 65.8019 23.3736 65.9869 22.9192C66.751 22.7462 67.6237 22.4929 68.5969 22.147C69.5902 21.7971 70.5273 21.391 71.3799 20.9446C72.2324 20.4982 72.9523 19.9874 73.5193 19.4405C74.1025 18.8734 74.3639 18.2742 74.2835 17.6509C74.2151 17.1321 73.9818 16.7299 73.5877 16.4605C73.1976 16.191 72.6909 16.0543 72.0635 16.0543C70.9656 16.0543 69.8436 16.3921 68.7256 17.0476C67.6196 17.7072 66.6142 18.5437 65.7456 19.541C64.8689 20.5344 64.1812 21.6443 63.6825 22.8186C63.4291 23.4259 63.2481 24.0372 63.1597 24.6284C62.7696 25.0989 62.3755 25.5413 61.9934 25.9394C61.177 26.7839 60.3848 27.4636 59.6528 27.9542C58.9289 28.4328 58.2613 28.6781 57.6862 28.6781C57.2157 28.6781 56.9624 28.4248 56.902 27.8778C56.8739 27.6003 56.902 27.2625 57.0066 26.8684C57.1112 26.4622 57.3283 25.9113 57.6501 25.2236C57.9718 24.5359 58.4343 23.623 59.0214 22.5291C59.6287 21.399 60.3968 19.9914 61.2977 18.3386C62.2267 16.6455 63.3406 14.6065 64.6356 12.2257C65.9145 9.88511 67.4427 7.03379 69.1841 3.75617L69.2765 3.58324H66.4775L66.4493 3.65161C64.9734 6.57934 63.6423 9.17329 62.4921 11.357C61.3339 13.5568 60.3204 15.4591 59.4759 17.0114C58.571 18.6884 57.8672 19.9955 57.3203 21.021C56.7452 22.1068 56.2747 23.0398 55.9288 23.8039C55.6915 24.3428 55.4945 24.8375 55.3658 25.2799C55.1567 25.5131 54.9475 25.7343 54.7424 25.9515C53.926 26.796 53.1338 27.4757 52.3938 27.9663C51.6699 28.4449 51.0023 28.6942 50.4272 28.6942C49.9567 28.6942 49.7033 28.4409 49.643 27.8939C49.6149 27.6164 49.643 27.2786 49.7476 26.8845C49.8521 26.4783 50.0693 25.9273 50.391 25.2396C50.7128 24.5519 51.1752 23.639 51.7704 22.5452C52.3697 21.4312 53.1378 20.0156 54.0507 18.3546C54.9797 16.6615 56.0937 14.6226 57.3967 12.2418C58.6756 9.89316 60.2118 7.04183 61.9612 3.77226L62.0537 3.59933H59.2547L59.2265 3.66769C57.7506 6.59543 56.4114 9.18133 55.2532 11.3731C54.0869 13.5729 53.0694 15.4832 52.2289 17.0275C51.308 18.7327 50.6203 20.0035 50.0653 21.0371C49.4821 22.1229 49.0156 23.0559 48.6738 23.82C48.3802 24.4635 48.1631 25.0547 48.0384 25.5614C47.9177 25.6941 47.8051 25.8228 47.6885 25.9515C46.8802 26.8121 46.108 27.4998 45.3922 27.9864C44.6884 28.465 44.0892 28.7143 43.6025 28.7143C43.0033 28.7143 42.6977 28.4449 42.6293 27.8778C42.5851 27.4636 42.7057 26.8764 42.9872 26.1405C43.2808 25.3844 43.691 24.5037 44.2138 23.5063C44.7326 22.513 45.3359 21.403 46.0195 20.2287C46.6911 19.0464 47.411 17.8198 48.151 16.561L48.2556 16.38H45.6214L44.7326 18.4069C44.6361 18.1536 44.5155 17.9042 44.3827 17.6669C44.2098 17.3653 43.9766 17.0999 43.7031 16.8586C43.4256 16.6213 43.0878 16.4323 42.7017 16.2915C42.3116 16.1588 41.8652 16.0824 41.3705 16.0824C40.337 16.0824 39.2753 16.4403 38.2055 17.1522C37.1519 17.856 36.1867 18.7528 35.3381 19.8064C34.4936 20.8601 33.8139 22.0063 33.3193 23.2128C32.8246 24.4233 32.6316 25.5493 32.7442 26.5587C32.8286 27.2786 33.086 27.9381 33.5284 28.5052C33.9788 29.0883 34.6746 29.3859 35.6076 29.3859C36.1545 29.3859 36.7135 29.2532 37.2846 28.9757C37.8396 28.7063 38.3785 28.3765 38.8771 27.9824C39.3798 27.5923 39.8504 27.166 40.2686 26.7156C40.5904 26.3737 40.8678 26.056 41.1051 25.7785C41.0528 26.0038 41.0006 26.233 40.9483 26.4662C40.8719 26.8041 40.8558 27.1539 40.904 27.5078C40.9644 28.0186 41.1896 28.465 41.5756 28.8309C41.9657 29.205 42.5328 29.39 43.2607 29.39C44.1294 29.39 45.0262 29.0481 45.9311 28.3725C46.5826 27.8859 47.2341 27.3027 47.8695 26.6351C47.8534 26.9126 47.8614 27.1821 47.8896 27.4435C47.958 28.0266 48.1912 28.5052 48.5773 28.8591C48.9674 29.217 49.5586 29.398 50.3347 29.398C51.0546 29.398 51.8308 29.1366 52.6472 28.6218C53.367 28.1674 54.2035 27.4475 55.1325 26.4984C55.1044 26.8282 55.1124 27.1419 55.1486 27.4475C55.217 28.0306 55.4502 28.5092 55.8363 28.8631C56.2264 29.221 56.8176 29.402 57.5938 29.402C58.3136 29.402 59.0898 29.1406 59.9062 28.6258C60.7065 28.1151 61.6475 27.2866 62.6972 26.1807C62.8259 26.0399 62.9586 25.8952 63.0953 25.7464C63.1034 25.9354 63.1114 26.1123 63.1315 26.2933C63.2522 27.2866 63.6423 28.0668 64.2857 28.5977C64.9211 29.1366 65.7737 29.406 66.8153 29.406C67.6478 29.406 68.4923 29.2492 69.3208 28.9436C70.1452 28.6379 70.9656 28.2156 71.7539 27.6928C72.4938 27.1982 73.1976 26.6392 73.8652 26.0239C73.8491 26.2571 73.8572 26.4743 73.8813 26.6834C73.9859 27.536 74.3599 28.2076 74.9792 28.6902C75.6026 29.1607 76.3023 29.402 77.0825 29.402C78.0477 29.402 79.037 29.0803 80.0223 28.4368C80.9955 27.8095 81.9607 27.0011 82.8817 26.044C83.8026 25.0868 84.6834 24.0251 85.5158 22.8709C86.3403 21.7328 87.1044 20.6269 87.7961 19.5853L87.8645 19.4807L87.406 19.163L87.3899 19.1549ZM66.9681 20.655C67.3502 19.9874 67.8006 19.352 68.2913 18.7689C68.794 18.1857 69.3087 17.6911 69.8396 17.301C70.3584 16.9189 70.8651 16.7259 71.3437 16.7259C71.5809 16.7259 71.786 16.8023 71.967 16.9511C72.148 17.0999 72.2525 17.3331 72.2887 17.6388C72.3652 18.238 72.1842 18.785 71.7418 19.3078C71.2874 19.8386 70.7163 20.3091 70.0487 20.7153C69.3771 21.1215 68.6492 21.4633 67.9012 21.7408C67.2416 21.9781 66.6746 22.1551 66.204 22.2596C66.377 21.777 66.6303 21.2381 66.9681 20.655ZM41.0368 24.8576C40.526 25.5171 39.9952 26.1003 39.4563 26.599C38.9174 27.1017 38.3865 27.5038 37.8758 27.7974C37.3731 28.091 36.9267 28.2317 36.5366 28.2317C36.1465 28.2317 35.8569 28.099 35.6156 27.8215C35.3703 27.536 35.2094 27.1258 35.1531 26.603C35.0325 25.5413 35.1692 24.4112 35.5714 23.2449C35.9776 22.0787 36.5124 20.9928 37.1881 20.0276C37.8597 19.0624 38.6077 18.2621 39.416 17.6388C40.2083 17.0315 40.9644 16.7178 41.6521 16.7178C42.0784 16.7178 42.4604 16.8506 42.7821 17.124C43.1039 17.3935 43.3009 17.7956 43.3572 18.3144C43.4417 18.9941 43.3773 19.73 43.1843 20.4861C42.9913 21.2502 42.7057 22.0063 42.3398 22.7462C41.9778 23.4943 41.5354 24.2021 41.0287 24.8616" fill="black" />
      </g>
    </g>
    <defs>
      <clipPath id="clip0_36547_63">
        <rect width="94" height="32" fill="white" />
      </clipPath>
      <clipPath id="clip1_36547_63">
        <rect width="93.3739" height="32" fill="white" />
      </clipPath>
    </defs>
  </svg>