<?xml version="1.0" encoding="UTF-8"?>
<svg>
    <g id="Home" stroke="none" stroke-width="1" fill="none" fill-rule="evenodd">
        <polygon id="Path-2-Copy" fill="#2F2F2F" points="128 0 0.653423652 0 128 80"></polygon>
        <path d="M91.3252814,5.71090963 C95.5653838,8.36041962 96.8316195,13.148212 96.8316195,13.148212 C99.0792362,13.2204701 104.497116,16.6059375 104.497116,16.6059375 L104.569574,16.6516363 C105.215614,17.0610978 109.986604,20.1269822 110.965232,21.9798734 C110.965232,21.9798734 115.823553,21.0191285 120.063655,23.6686385 C120.063655,23.6686385 119.403742,28.9181168 115.809094,31.0015601 C115.809094,31.0015601 117.332966,36.9495469 111.130131,43.7310582 C105.301365,50.1036725 97.9047061,48.1227793 93.9001779,45.6204724 C93.9001779,45.6204724 94.6063717,48.0442583 93.154371,50.4832096 C92.5953379,51.4223058 90.8833906,54.1206039 90.76599,54.3055768 L90.7596381,54.3155834 L89.7311,55.9599096 L75.6191,47.0939096 L76.6260254,45.483922 C72.3576001,44.118645 69.5186715,40.4657934 69.7101319,38.3233761 L69.7284266,38.1764036 C70.0694517,36.058151 69.9809939,32.006316 69.9809939,32.006316 C68.1381883,29.1895261 69.2938749,28.9125391 69.2938749,28.9125391 C72.3978182,29.1868865 72.8076979,33.7726367 72.8076979,33.7726367 C72.8076979,33.7726367 72.4888104,36.9038625 74.2457219,39.3339113 C75.9101644,41.6360628 78.9179161,41.7884702 79.2299109,41.7981359 L79.2562567,41.7987693 C80.5173944,39.2563268 83.0643417,38.8495559 83.0643417,38.8495559 C79.0598134,36.3472489 74.0369167,30.5675426 77.2094217,22.5351121 C80.5855355,13.9872041 86.599572,12.7494252 86.599572,12.7494252 C86.8963683,8.6052551 91.3252814,5.71090963 91.3252814,5.71090963 Z" id="Combined-Shape-Copy-5" fill="#FED676" fill-rule="nonzero"></path>
    </g>
</svg>