<svg xmlns="http://www.w3.org/2000/svg" width="30" height="30" viewBox="0 0 30 30">
  <path id="路径_13676" data-name="路径 13676" d="M15,30A15,15,0,1,0,0,15,15,15,0,0,0,15,30ZM21.44,7.8a1.693,1.693,0,0,1,.981-.3h0c.5,0,.845.327.721.467s-.36.355-.644.616c-.336.308-.73.669-1.04,1a41.581,41.581,0,0,0-4.733,5.83c-1.246,1.838-2.364,3.728-3.221,5.177l-.261.441c-.078.13-.148.251-.214.363-.456.78-.649,1.11-1.031,1.11-.351,0-.953-.894-.953-.894l-4.225-6.2a1.049,1.049,0,0,1,0-1.076.757.757,0,0,1,1.038-.278l4.15,3.256a44.977,44.977,0,0,1,4.522-5.358A40.337,40.337,0,0,1,21.44,7.8Z" fill="#28ab00" fill-rule="evenodd"/>
</svg>
