<svg xmlns="http://www.w3.org/2000/svg" width="30.999" height="31.001" viewBox="0 0 30.999 31.001">
  <path id="排除_1" data-name="排除 1" d="M-3783-6620a14.9,14.9,0,0,1-10.605-4.394A14.9,14.9,0,0,1-3798-6635a14.9,14.9,0,0,1,4.393-10.607A14.9,14.9,0,0,1-3783-6650a14.9,14.9,0,0,1,10.607,4.394A14.9,14.9,0,0,1-3768-6635a14.9,14.9,0,0,1-4.393,10.607A14.9,14.9,0,0,1-3783-6620Zm-5.925-22a1.07,1.07,0,0,0-.76.314,1.079,1.079,0,0,0,0,1.522l5.321,5.32-5.321,5.322a1.065,1.065,0,0,0-.315.759,1.069,1.069,0,0,0,.315.762,1.067,1.067,0,0,0,.76.314,1.071,1.071,0,0,0,.761-.314l5.32-5.322,5.321,5.322a1.07,1.07,0,0,0,.761.313A1.061,1.061,0,0,0-3776-6628a1.069,1.069,0,0,0,.315-.762,1.065,1.065,0,0,0-.315-.759l-5.321-5.322,5.321-5.32a1.079,1.079,0,0,0,0-1.522,1.07,1.07,0,0,0-.76-.314,1.074,1.074,0,0,0-.761.314l-5.321,5.322-5.32-5.322A1.076,1.076,0,0,0-3788.925-6642Z" transform="translate(3798.499 6650.5)" fill="#cb4242" stroke="rgba(0,0,0,0)" stroke-miterlimit="10" stroke-width="1"/>
</svg>
